<svg id="Group_14125" data-name="Group 14125" xmlns="http://www.w3.org/2000/svg" width="24" height="24" viewBox="0 0 24 24">
  <path id="Path_60533" data-name="Path 60533" d="M21.187,0H2.813A2.816,2.816,0,0,0,0,2.813V21.187A2.816,2.816,0,0,0,2.813,24H21.187A2.816,2.816,0,0,0,24,21.187V2.813A2.816,2.816,0,0,0,21.187,0Zm.938,21.187a.939.939,0,0,1-.938.938H15.844V14.484h2.9l.479-2.906H15.844V9.563A1.383,1.383,0,0,1,17.25,8.156h1.922V5.25H17.25a4.312,4.312,0,0,0-4.311,4.321v2.007H10.125v2.906h2.814v7.641H2.813a.939.939,0,0,1-.937-.938V2.813a.939.939,0,0,1,.938-.937H21.187a.939.939,0,0,1,.938.938Z" fill="#a18d4c"/>
</svg>
