<svg id="Group_14124" data-name="Group 14124" xmlns="http://www.w3.org/2000/svg" width="24" height="24" viewBox="0 0 24 24">
  <g id="instagram">
    <g id="Group_14008" data-name="Group 14008">
      <g id="Group_14007" data-name="Group 14007">
        <path id="Path_60509" data-name="Path 60509" d="M16.5,0h-9A7.5,7.5,0,0,0,0,7.5v9A7.5,7.5,0,0,0,7.5,24h9A7.5,7.5,0,0,0,24,16.5v-9A7.5,7.5,0,0,0,16.5,0Zm5.25,16.5a5.256,5.256,0,0,1-5.25,5.25h-9A5.256,5.256,0,0,1,2.25,16.5v-9A5.256,5.256,0,0,1,7.5,2.25h9A5.256,5.256,0,0,1,21.75,7.5Z" fill="#a18d4c"/>
      </g>
    </g>
    <g id="Group_14010" data-name="Group 14010" transform="translate(6.023 6.023)">
      <g id="Group_14009" data-name="Group 14009">
        <path id="Path_60510" data-name="Path 60510" d="M133.977,128a5.977,5.977,0,1,0,5.977,5.977A5.977,5.977,0,0,0,133.977,128Zm0,9.713a3.736,3.736,0,1,1,3.736-3.736A3.741,3.741,0,0,1,133.977,137.713Z" transform="translate(-128 -128)" fill="#a18d4c"/>
      </g>
    </g>
    <g id="Group_14012" data-name="Group 14012" transform="translate(17.655 4.752)">
      <g id="Group_14011" data-name="Group 14011">
        <circle id="Ellipse_457" data-name="Ellipse 457" cx="0.796" cy="0.796" r="0.796" fill="#a18d4c"/>
      </g>
    </g>
  </g>
</svg>
