<svg id="Group_14117" data-name="Group 14117" xmlns="http://www.w3.org/2000/svg" width="24" height="24" viewBox="0 0 24 24">
  <path id="Path_60511" data-name="Path 60511" d="M17.662,0H6.338A6.271,6.271,0,0,0,0,6.338V17.662A6.271,6.271,0,0,0,6.338,24H17.662A6.271,6.271,0,0,0,24,17.662V6.338A6.271,6.271,0,0,0,17.662,0Zm4.79,17.662a4.739,4.739,0,0,1-4.79,4.79H6.338a4.739,4.739,0,0,1-4.79-4.79V6.338a4.739,4.739,0,0,1,4.79-4.79H17.662a4.739,4.739,0,0,1,4.79,4.79Z" transform="translate(0 0)" fill="#a18d4c"/>
  <path id="Path_60512" data-name="Path 60512" d="M97.4,115.348a.715.715,0,0,0-.643-.026,4.14,4.14,0,0,1-1,.178l-.217.023a3.292,3.292,0,0,0-1.8-.516,2.6,2.6,0,0,0-2.788,2.066,6.178,6.178,0,0,1-3.452-1.58.676.676,0,0,0-.535-.166.587.587,0,0,0-.457.276,5.119,5.119,0,0,0-.366,2.3c0,1.377,1.364,2.389,2.3,2.921a4.947,4.947,0,0,1-2.078.255.612.612,0,0,0-.621.31.426.426,0,0,0,.241.551,8.259,8.259,0,0,0,3.694.849c4.213,0,6.763-2.637,6.857-5.236.121-.14.352-.412.742-.891a2.778,2.778,0,0,0,.351-.837A.425.425,0,0,0,97.4,115.348Zm-1.927,1.782a.409.409,0,0,0-.112.274c0,1.848-1.764,4.451-5.685,4.451a7.238,7.238,0,0,1-1.05-.076,5.513,5.513,0,0,0,1.293-.577.433.433,0,0,0,.226-.415.482.482,0,0,0-.32-.374c-.025-.01-2.51-1.051-2.51-2.508a7.957,7.957,0,0,1,.076-1.164,7.972,7.972,0,0,0,4.167,1.326h.035c.342-.008.594-.208.594-.468a.384.384,0,0,0-.046-.182,1.032,1.032,0,0,1-.022-.212,1.475,1.475,0,0,1,1.618-1.261,1.862,1.862,0,0,1,1.183.4.689.689,0,0,0,.537.137c.133-.02.287-.036.449-.053l.175-.019C95.639,116.946,95.48,117.122,95.472,117.13Z" transform="translate(-80.045 -106.515)" fill="#a18d4c"/>
</svg>
